<svg xmlns="http://www.w3.org/2000/svg" xmlns:xlink="http://www.w3.org/1999/xlink" width="500" zoomAndPan="magnify" viewBox="0 0 375 374.999991" height="500" preserveAspectRatio="xMidYMid meet" version="1.0"><defs><clipPath id="c14bc78fbe"><path d="M 0 23.4375 L 375 23.4375 L 375 351.5625 L 0 351.5625 Z M 0 23.4375 " clip-rule="nonzero"/></clipPath><clipPath id="9832bfc7ba"><path d="M 244.695312 23.4375 L 130.292969 23.4375 C 58.328125 23.4375 0 80.421875 0 150.714844 C 0 201.601562 30.578125 245.5 74.757812 265.863281 L 74.757812 351.5625 L 163.253906 277.988281 L 244.695312 277.988281 C 316.664062 277.988281 375 221.003906 375 150.710938 C 375.003906 80.421875 316.664062 23.4375 244.695312 23.4375 Z M 244.695312 23.4375 " clip-rule="nonzero"/></clipPath></defs><g clip-path="url(#c14bc78fbe)"><g clip-path="url(#9832bfc7ba)"><path stroke-linecap="butt" transform="matrix(0.75, 0, 0, 0.75, 0.0000045, 23.437498)" fill="none" stroke-linejoin="miter" d="M 326.260411 0.00000205208 L 173.723953 0.00000205208 C 77.770827 0.00000205208 -0.000006 75.979169 -0.000006 169.703127 C -0.000006 237.557294 40.770827 296.083336 99.677077 323.234378 L 99.677077 437.500003 L 217.671869 339.401044 L 326.260411 339.401044 C 422.218745 339.401044 499.999995 263.421877 499.999995 169.697919 C 500.005203 75.979169 422.218745 0.00000205208 326.260411 0.00000205208 Z M 326.260411 0.00000205208 " stroke="#333333" stroke-width="8" stroke-opacity="1" stroke-miterlimit="4"/></g></g></svg>