<svg xmlns="http://www.w3.org/2000/svg" xmlns:xlink="http://www.w3.org/1999/xlink" width="500" zoomAndPan="magnify" viewBox="0 0 375 374.999991" height="500" preserveAspectRatio="xMidYMid meet" version="1.0"><defs><g/><clipPath id="48adff0091"><path d="M 69.457031 14 L 337.757812 14 L 337.757812 368.855469 L 69.457031 368.855469 Z M 69.457031 14 " clip-rule="nonzero"/></clipPath></defs><g clip-path="url(#48adff0091)"><path fill="#ffb74d" d="M 69.511719 186.984375 C 69.511719 168.898438 73.054688 151.351562 80.042969 134.828125 C 86.792969 118.875 96.453125 104.546875 108.753906 92.246094 C 121.054688 79.941406 135.386719 70.28125 151.339844 63.535156 C 167.859375 56.546875 185.40625 53.003906 203.492188 53.003906 C 216.855469 53.003906 230.007812 54.964844 242.652344 58.828125 L 274.449219 16.652344 C 276.425781 14.027344 280.15625 13.503906 282.777344 15.484375 C 285.398438 17.460938 285.925781 21.191406 283.945312 23.8125 L 199.382812 135.972656 C 199.109375 136.332031 198.800781 136.65625 198.46875 136.9375 C 206.902344 146.648438 207.722656 161.285156 199.675781 171.953125 L 183.859375 192.929688 C 174.617188 205.191406 157.125 207.644531 144.863281 198.402344 C 132.605469 189.160156 130.152344 171.667969 139.394531 159.40625 C 139.46875 159.308594 139.546875 159.21875 139.625 159.128906 C 139.6875 159.027344 139.757812 158.925781 139.828125 158.828125 L 155.210938 138.429688 C 163.257812 127.757812 177.554688 124.519531 189.207031 129.957031 C 189.386719 129.558594 189.613281 129.175781 189.886719 128.808594 L 235.457031 68.371094 C 225.082031 65.578125 214.363281 64.167969 203.492188 64.167969 C 135.773438 64.167969 80.675781 119.261719 80.675781 186.984375 C 80.675781 224.242188 97.308594 259.0625 126.308594 282.519531 C 128.707031 284.460938 129.078125 287.976562 127.136719 290.371094 C 126.035156 291.734375 124.421875 292.445312 122.796875 292.445312 C 121.5625 292.445312 120.320312 292.039062 119.289062 291.199219 C 87.65625 265.613281 69.511719 227.628906 69.511719 186.984375 Z M 192.339844 228.632812 C 195.121094 224.945312 199.179688 222.5625 203.765625 221.917969 C 204.585938 221.804688 205.402344 221.746094 206.21875 221.746094 C 209.953125 221.746094 213.570312 222.949219 216.601562 225.230469 C 220.289062 228.011719 222.671875 232.074219 223.316406 236.65625 C 223.960938 241.246094 222.78125 245.800781 220.003906 249.488281 C 217.222656 253.175781 213.164062 255.566406 208.578125 256.210938 C 203.988281 256.851562 199.433594 255.671875 195.746094 252.890625 C 192.058594 250.113281 189.671875 246.054688 189.027344 241.46875 C 188.382812 236.878906 189.5625 232.320312 192.339844 228.632812 Z M 321.011719 251.375 C 331.785156 231.738281 337.472656 209.515625 337.472656 186.984375 C 337.472656 142.523438 315.480469 101.050781 278.644531 76.050781 C 276.09375 74.316406 272.625 74.984375 270.890625 77.535156 C 269.160156 80.085938 269.824219 83.554688 272.375 85.289062 C 306.148438 108.207031 326.308594 146.226562 326.308594 186.984375 C 326.308594 208.238281 320.789062 229.179688 310.355469 247.550781 C 309.742188 248.632812 309.507812 249.890625 309.691406 251.121094 L 321.746094 333.253906 L 251.824219 301.789062 C 250.464844 301.175781 248.921875 301.132812 247.53125 301.667969 C 233.488281 307.0625 218.671875 309.800781 203.492188 309.800781 C 190.144531 309.800781 177.101562 307.6875 164.621094 303.519531 L 194.832031 263.449219 C 200.128906 265.90625 206.132812 266.578125 211.898438 265.328125 C 218.183594 263.960938 223.777344 260.382812 227.640625 255.253906 L 264.238281 206.714844 C 265.824219 204.609375 265.402344 201.601562 263.296875 200.015625 C 261.191406 198.425781 258.183594 198.847656 256.597656 200.953125 L 232.375 233.078125 C 231.335938 228.5 229.113281 224.265625 225.925781 220.8125 L 246.585938 193.40625 C 248.175781 191.300781 247.753906 188.292969 245.648438 186.707031 C 244.625 185.9375 243.371094 185.613281 242.101562 185.789062 C 240.835938 185.964844 239.714844 186.625 238.945312 187.644531 L 218.28125 215.050781 C 214.085938 212.933594 209.40625 211.964844 204.714844 212.226562 L 228.933594 180.097656 C 229.707031 179.078125 230.03125 177.816406 229.851562 176.550781 C 229.675781 175.289062 229.015625 174.167969 227.996094 173.398438 C 226.972656 172.628906 225.71875 172.300781 224.453125 172.480469 C 223.1875 172.65625 222.0625 173.316406 221.296875 174.339844 L 184.699219 222.875 C 180.832031 228.007812 178.933594 234.367188 179.347656 240.785156 C 179.730469 246.671875 182.027344 252.261719 185.847656 256.671875 L 152.367188 301.082031 C 151.300781 301.675781 150.421875 302.621094 149.925781 303.839844 C 149.816406 304.109375 149.734375 304.382812 149.667969 304.660156 L 109.015625 358.574219 C 107.945312 359.996094 107.359375 361.667969 107.359375 363.28125 C 107.359375 365.03125 108.078125 366.574219 109.324219 367.515625 C 110.179688 368.15625 111.203125 368.464844 112.269531 368.464844 C 114.296875 368.464844 116.492188 367.355469 118.003906 365.351562 L 157.5625 312.882812 C 172.246094 318.246094 187.675781 320.960938 203.492188 320.960938 C 219.253906 320.960938 234.667969 318.253906 249.339844 312.910156 L 326.457031 347.617188 C 327.191406 347.945312 327.972656 348.105469 328.746094 348.105469 C 329.945312 348.105469 331.125 347.722656 332.113281 346.980469 C 333.738281 345.75 334.566406 343.734375 334.269531 341.714844 L 321.011719 251.375 " fill-opacity="1" fill-rule="nonzero"/></g><g fill="#ffb74d" fill-opacity="1"><g transform="translate(106.557207, 312.347362)"><g><path d="M -7.1875 -6.75 C -6.851562 -6.445312 -6.640625 -6.078125 -6.546875 -5.640625 C -6.460938 -5.203125 -6.519531 -4.738281 -6.71875 -4.25 L -15.671875 15.6875 C -15.796875 15.914062 -15.90625 16.078125 -16 16.171875 C -16.269531 16.515625 -16.609375 16.695312 -17.015625 16.71875 C -17.421875 16.738281 -17.796875 16.59375 -18.140625 16.28125 C -18.410156 16.039062 -18.570312 15.738281 -18.625 15.375 C -18.675781 15.019531 -18.617188 14.675781 -18.453125 14.34375 L -9.953125 -3.671875 L -27.015625 6.453125 C -27.359375 6.671875 -27.734375 6.753906 -28.140625 6.703125 C -28.554688 6.648438 -28.914062 6.488281 -29.21875 6.21875 C -29.53125 5.9375 -29.726562 5.59375 -29.8125 5.1875 C -29.894531 4.789062 -29.847656 4.410156 -29.671875 4.046875 L -21.234375 -13.921875 L -38.328125 -3.703125 C -38.660156 -3.523438 -39.003906 -3.441406 -39.359375 -3.453125 C -39.710938 -3.460938 -40.03125 -3.59375 -40.3125 -3.84375 C -40.65625 -4.15625 -40.832031 -4.515625 -40.84375 -4.921875 C -40.863281 -5.328125 -40.722656 -5.6875 -40.421875 -6 C -40.328125 -6.09375 -40.171875 -6.207031 -39.953125 -6.34375 L -20.96875 -17.1875 C -20.5 -17.425781 -20.039062 -17.523438 -19.59375 -17.484375 C -19.15625 -17.441406 -18.769531 -17.269531 -18.4375 -16.96875 C -18.09375 -16.65625 -17.875 -16.265625 -17.78125 -15.796875 C -17.695312 -15.328125 -17.757812 -14.878906 -17.96875 -14.453125 L -25.671875 2.3125 L -9.734375 -6.984375 C -9.335938 -7.222656 -8.898438 -7.320312 -8.421875 -7.28125 C -7.941406 -7.238281 -7.53125 -7.0625 -7.1875 -6.75 Z M -7.1875 -6.75 "/></g></g></g><g fill="#ffb74d" fill-opacity="1"><g transform="translate(78.140001, 285.185188)"><g><path d="M -2.65625 -4.125 C -2.40625 -3.757812 -2.316406 -3.367188 -2.390625 -2.953125 C -2.460938 -2.546875 -2.675781 -2.21875 -3.03125 -1.96875 L -20.515625 10.203125 C -20.878906 10.453125 -21.269531 10.539062 -21.6875 10.46875 C -22.113281 10.394531 -22.453125 10.175781 -22.703125 9.8125 C -22.953125 9.46875 -23.039062 9.078125 -22.96875 8.640625 C -22.894531 8.210938 -22.675781 7.875 -22.3125 7.625 L -14.765625 2.375 L -22.234375 -8.359375 L -29.78125 -3.109375 C -30.144531 -2.859375 -30.535156 -2.769531 -30.953125 -2.84375 C -31.378906 -2.914062 -31.71875 -3.128906 -31.96875 -3.484375 C -32.21875 -3.835938 -32.304688 -4.226562 -32.234375 -4.65625 C -32.160156 -5.09375 -31.941406 -5.4375 -31.578125 -5.6875 L -14.09375 -17.859375 C -13.738281 -18.109375 -13.347656 -18.1875 -12.921875 -18.09375 C -12.503906 -18 -12.171875 -17.773438 -11.921875 -17.421875 C -11.671875 -17.066406 -11.582031 -16.679688 -11.65625 -16.265625 C -11.726562 -15.859375 -11.941406 -15.53125 -12.296875 -15.28125 L -19.84375 -10.03125 L -12.375 0.703125 L -4.828125 -4.546875 C -4.472656 -4.796875 -4.082031 -4.875 -3.65625 -4.78125 C -3.238281 -4.6875 -2.90625 -4.46875 -2.65625 -4.125 Z M -2.65625 -4.125 "/></g></g></g><g fill="#ffb74d" fill-opacity="1"><g transform="translate(60.962922, 259.654665)"><g><path d="M -1.15625 -3.078125 C -0.96875 -2.648438 -0.953125 -2.242188 -1.109375 -1.859375 C -1.265625 -1.484375 -1.546875 -1.207031 -1.953125 -1.03125 C -2.117188 -0.957031 -2.347656 -0.914062 -2.640625 -0.90625 L -25.21875 -0.6875 C -25.664062 -0.707031 -26.070312 -0.816406 -26.4375 -1.015625 C -26.8125 -1.210938 -27.097656 -1.535156 -27.296875 -1.984375 L -27.4375 -2.296875 C -27.625 -2.734375 -27.664062 -3.160156 -27.5625 -3.578125 C -27.457031 -3.992188 -27.253906 -4.363281 -26.953125 -4.6875 L -11.390625 -21.046875 C -11.191406 -21.265625 -11.007812 -21.410156 -10.84375 -21.484375 C -10.4375 -21.660156 -10.039062 -21.671875 -9.65625 -21.515625 C -9.269531 -21.367188 -8.984375 -21.082031 -8.796875 -20.65625 C -8.660156 -20.363281 -8.617188 -20.0625 -8.671875 -19.75 C -8.722656 -19.445312 -8.863281 -19.171875 -9.09375 -18.921875 L -13.125 -14.734375 L -8.453125 -3.96875 L -2.640625 -4.0625 C -2.296875 -4.039062 -1.992188 -3.941406 -1.734375 -3.765625 C -1.472656 -3.597656 -1.28125 -3.367188 -1.15625 -3.078125 Z M -11.5625 -3.9375 L -15.265625 -12.484375 L -23.703125 -3.75 Z M -11.5625 -3.9375 "/></g></g></g><g fill="#ffb74d" fill-opacity="1"><g transform="translate(49.383149, 231.352854)"><g><path d="M -2.1875 -10.25 C -2.09375 -9.820312 -2.15625 -9.429688 -2.375 -9.078125 C -2.601562 -8.722656 -2.929688 -8.492188 -3.359375 -8.390625 L -22.609375 -3.9375 L -21.015625 2.921875 C -20.921875 3.316406 -20.976562 3.679688 -21.1875 4.015625 C -21.40625 4.347656 -21.71875 4.5625 -22.125 4.65625 C -22.53125 4.75 -22.898438 4.691406 -23.234375 4.484375 C -23.566406 4.273438 -23.78125 3.972656 -23.875 3.578125 L -27.75 -13.171875 C -27.84375 -13.578125 -27.785156 -13.945312 -27.578125 -14.28125 C -27.367188 -14.625 -27.0625 -14.84375 -26.65625 -14.9375 C -26.25 -15.03125 -25.875 -14.96875 -25.53125 -14.75 C -25.195312 -14.539062 -24.984375 -14.234375 -24.890625 -13.828125 L -23.3125 -7 L -4.0625 -11.453125 C -3.632812 -11.554688 -3.238281 -11.488281 -2.875 -11.25 C -2.519531 -11.007812 -2.289062 -10.675781 -2.1875 -10.25 Z M -2.1875 -10.25 "/></g></g></g><g fill="#ffb74d" fill-opacity="1"><g transform="translate(44.189073, 205.526738)"><g><path d="M -16.6875 -1.546875 C -16.65625 -1.273438 -16.734375 -1.03125 -16.921875 -0.8125 C -17.117188 -0.59375 -17.351562 -0.46875 -17.625 -0.4375 C -17.988281 -0.40625 -18.289062 -0.550781 -18.53125 -0.875 C -18.925781 -1.414062 -19.367188 -1.8125 -19.859375 -2.0625 C -20.347656 -2.320312 -21.023438 -2.410156 -21.890625 -2.328125 L -21.875 -2.1875 C -21.820312 -1.65625 -21.96875 -1.179688 -22.3125 -0.765625 C -22.65625 -0.347656 -23.09375 -0.113281 -23.625 -0.0625 L -23.828125 -0.046875 C -24.347656 0.00390625 -24.816406 -0.132812 -25.234375 -0.46875 C -25.648438 -0.8125 -25.882812 -1.25 -25.9375 -1.78125 L -25.96875 -2.125 C -26.019531 -2.644531 -25.875 -3.113281 -25.53125 -3.53125 C -25.1875 -3.957031 -24.753906 -4.195312 -24.234375 -4.25 L -22.203125 -4.4375 C -20.003906 -4.65625 -18.242188 -3.882812 -16.921875 -2.125 C -16.785156 -1.945312 -16.707031 -1.753906 -16.6875 -1.546875 Z M -16.6875 -1.546875 "/></g></g></g><g fill="#ffb74d" fill-opacity="1"><g transform="translate(42.785478, 192.013109)"><g><path d="M 0.6875 -10.921875 C 0.59375 -8.003906 -0.0390625 -5.285156 -1.21875 -2.765625 C -1.34375 -2.492188 -1.539062 -2.269531 -1.8125 -2.09375 C -2.082031 -1.925781 -2.363281 -1.847656 -2.65625 -1.859375 C -3.050781 -1.867188 -3.390625 -2.007812 -3.671875 -2.28125 C -3.953125 -2.550781 -4.085938 -2.894531 -4.078125 -3.3125 C -4.066406 -3.539062 -4.007812 -3.753906 -3.90625 -3.953125 C -2.90625 -6.035156 -2.363281 -8.285156 -2.28125 -10.703125 C -2.15625 -14.710938 -3.414062 -16.757812 -6.0625 -16.84375 C -6.75 -16.875 -7.328125 -16.632812 -7.796875 -16.125 C -8.273438 -15.625 -8.660156 -15 -8.953125 -14.25 C -9.242188 -13.507812 -9.59375 -12.445312 -10 -11.0625 C -10.550781 -9.21875 -11.066406 -7.722656 -11.546875 -6.578125 C -12.035156 -5.441406 -12.738281 -4.472656 -13.65625 -3.671875 C -14.570312 -2.878906 -15.78125 -2.507812 -17.28125 -2.5625 C -18.582031 -2.601562 -19.757812 -2.984375 -20.8125 -3.703125 C -21.863281 -4.429688 -22.679688 -5.476562 -23.265625 -6.84375 C -23.847656 -8.207031 -24.113281 -9.832031 -24.0625 -11.71875 C -23.976562 -14.25 -23.523438 -16.519531 -22.703125 -18.53125 C -22.453125 -19.164062 -21.984375 -19.472656 -21.296875 -19.453125 C -20.929688 -19.441406 -20.597656 -19.304688 -20.296875 -19.046875 C -20.003906 -18.785156 -19.863281 -18.445312 -19.875 -18.03125 C -19.882812 -17.894531 -19.941406 -17.710938 -20.046875 -17.484375 C -20.722656 -15.710938 -21.09375 -13.875 -21.15625 -11.96875 C -21.207031 -10.15625 -20.90625 -8.664062 -20.25 -7.5 C -19.59375 -6.34375 -18.644531 -5.742188 -17.40625 -5.703125 C -16.582031 -5.671875 -15.90625 -5.914062 -15.375 -6.4375 C -14.84375 -6.96875 -14.421875 -7.640625 -14.109375 -8.453125 C -13.796875 -9.265625 -13.457031 -10.363281 -13.09375 -11.75 C -12.59375 -13.550781 -12.101562 -15 -11.625 -16.09375 C -11.15625 -17.1875 -10.453125 -18.113281 -9.515625 -18.875 C -8.578125 -19.644531 -7.320312 -20.003906 -5.75 -19.953125 C -4.46875 -19.910156 -3.320312 -19.503906 -2.3125 -18.734375 C -1.3125 -17.972656 -0.546875 -16.914062 -0.015625 -15.5625 C 0.515625 -14.21875 0.75 -12.671875 0.6875 -10.921875 Z M 0.6875 -10.921875 "/></g></g></g><g fill="#ffb74d" fill-opacity="1"><g transform="translate(44.388692, 165.505094)"><g/></g></g><g fill="#ffb74d" fill-opacity="1"><g transform="translate(46.648946, 151.382449)"><g><path d="M 3.421875 -10.515625 C 3.296875 -10.085938 3.039062 -9.769531 2.65625 -9.5625 C 2.28125 -9.351562 1.882812 -9.3125 1.46875 -9.4375 L -6.9375 -12.03125 L -20.40625 -7.5625 C -20.75 -7.46875 -21.078125 -7.46875 -21.390625 -7.5625 C -21.804688 -7.695312 -22.117188 -7.945312 -22.328125 -8.3125 C -22.535156 -8.675781 -22.578125 -9.066406 -22.453125 -9.484375 C -22.285156 -10.035156 -21.894531 -10.394531 -21.28125 -10.5625 L -9.140625 -14.390625 L -17.03125 -24.34375 C -17.4375 -24.832031 -17.554688 -25.347656 -17.390625 -25.890625 C -17.265625 -26.304688 -17.007812 -26.613281 -16.625 -26.8125 C -16.25 -27.019531 -15.851562 -27.039062 -15.4375 -26.875 C -15.125 -26.78125 -14.847656 -26.609375 -14.609375 -26.359375 L -6.015625 -15.03125 L 2.390625 -12.4375 C 2.804688 -12.3125 3.113281 -12.0625 3.3125 -11.6875 C 3.519531 -11.320312 3.554688 -10.929688 3.421875 -10.515625 Z M 3.421875 -10.515625 "/></g></g></g><g fill="#ffb74d" fill-opacity="1"><g transform="translate(54.722418, 125.784614)"><g><path d="M 6.90625 -12.1875 C 5.769531 -10.0625 4.304688 -8.445312 2.515625 -7.34375 C 0.722656 -6.238281 -1.222656 -5.6875 -3.328125 -5.6875 C -5.441406 -5.695312 -7.578125 -6.253906 -9.734375 -7.359375 C -11.828125 -8.535156 -13.460938 -10 -14.640625 -11.75 C -15.816406 -13.507812 -16.441406 -15.4375 -16.515625 -17.53125 C -16.585938 -19.632812 -16.054688 -21.75 -14.921875 -23.875 C -13.773438 -26 -12.3125 -27.609375 -10.53125 -28.703125 C -8.75 -29.796875 -6.796875 -30.335938 -4.671875 -30.328125 C -2.546875 -30.328125 -0.421875 -29.785156 1.703125 -28.703125 C 3.796875 -27.523438 5.429688 -26.050781 6.609375 -24.28125 C 7.785156 -22.519531 8.414062 -20.59375 8.5 -18.5 C 8.582031 -16.414062 8.050781 -14.3125 6.90625 -12.1875 Z M 4.328125 -13.5625 C 5.203125 -15.1875 5.59375 -16.789062 5.5 -18.375 C 5.414062 -19.96875 4.914062 -21.414062 4 -22.71875 C 3.082031 -24.019531 1.828125 -25.097656 0.234375 -25.953125 C -1.335938 -26.796875 -2.921875 -27.238281 -4.515625 -27.28125 C -6.117188 -27.332031 -7.601562 -26.953125 -8.96875 -26.140625 C -10.34375 -25.335938 -11.46875 -24.125 -12.34375 -22.5 C -13.21875 -20.863281 -13.609375 -19.253906 -13.515625 -17.671875 C -13.421875 -16.097656 -12.910156 -14.65625 -11.984375 -13.34375 C -11.066406 -12.039062 -9.820312 -10.96875 -8.25 -10.125 C -6.65625 -9.269531 -5.0625 -8.820312 -3.46875 -8.78125 C -1.875 -8.738281 -0.394531 -9.113281 0.96875 -9.90625 C 2.332031 -10.707031 3.453125 -11.925781 4.328125 -13.5625 Z M 4.328125 -13.5625 "/></g></g></g><g fill="#ffb74d" fill-opacity="1"><g transform="translate(70.649354, 97.265553)"><g><path d="M 8.65625 -9.8125 C 7.601562 -8.550781 6.328125 -7.5625 4.828125 -6.84375 C 3.335938 -6.125 1.734375 -5.847656 0.015625 -6.015625 C -1.691406 -6.179688 -3.328125 -6.921875 -4.890625 -8.234375 L -15.359375 -16.984375 C -15.691406 -17.265625 -15.875 -17.617188 -15.90625 -18.046875 C -15.945312 -18.472656 -15.832031 -18.851562 -15.5625 -19.1875 C -15.28125 -19.519531 -14.921875 -19.707031 -14.484375 -19.75 C -14.054688 -19.789062 -13.675781 -19.671875 -13.34375 -19.390625 L -2.8125 -10.578125 C -1.75 -9.691406 -0.644531 -9.179688 0.5 -9.046875 C 1.65625 -8.910156 2.75 -9.082031 3.78125 -9.5625 C 4.820312 -10.039062 5.71875 -10.734375 6.46875 -11.640625 C 7.21875 -12.535156 7.738281 -13.535156 8.03125 -14.640625 C 8.320312 -15.742188 8.300781 -16.847656 7.96875 -17.953125 C 7.632812 -19.066406 6.9375 -20.066406 5.875 -20.953125 L -4.65625 -29.765625 C -4.988281 -30.046875 -5.175781 -30.398438 -5.21875 -30.828125 C -5.257812 -31.253906 -5.140625 -31.632812 -4.859375 -31.96875 C -4.578125 -32.300781 -4.21875 -32.488281 -3.78125 -32.53125 C -3.351562 -32.570312 -2.972656 -32.453125 -2.640625 -32.171875 L 7.828125 -23.421875 C 9.390625 -22.109375 10.40625 -20.625 10.875 -18.96875 C 11.34375 -17.320312 11.351562 -15.695312 10.90625 -14.09375 C 10.457031 -12.488281 9.707031 -11.0625 8.65625 -9.8125 Z M 8.65625 -9.8125 "/></g></g></g><g fill="#ffb74d" fill-opacity="1"><g transform="translate(90.892231, 73.92491)"><g><path d="M 3.921875 -2.9375 C 3.585938 -2.664062 3.207031 -2.550781 2.78125 -2.59375 C 2.363281 -2.632812 2.019531 -2.820312 1.75 -3.15625 L -11.53125 -19.59375 C -11.800781 -19.9375 -11.914062 -20.320312 -11.875 -20.75 C -11.832031 -21.1875 -11.644531 -21.539062 -11.3125 -21.8125 L -5.0625 -26.859375 C -2.625 -28.828125 -0.394531 -29.800781 1.625 -29.78125 C 3.65625 -29.769531 5.328125 -28.945312 6.640625 -27.3125 C 7.515625 -26.238281 8.007812 -25.015625 8.125 -23.640625 C 8.238281 -22.273438 7.878906 -20.925781 7.046875 -19.59375 C 8.609375 -20.300781 10.132812 -20.21875 11.625 -19.34375 C 13.113281 -18.46875 14.351562 -17.421875 15.34375 -16.203125 L 16.34375 -14.953125 C 16.613281 -14.617188 16.726562 -14.238281 16.6875 -13.8125 C 16.644531 -13.394531 16.453125 -13.050781 16.109375 -12.78125 C 15.734375 -12.476562 15.34375 -12.347656 14.9375 -12.390625 C 14.53125 -12.429688 14.1875 -12.628906 13.90625 -12.984375 L 13.25 -13.8125 C 12.53125 -14.695312 11.78125 -15.453125 11 -16.078125 C 10.21875 -16.710938 9.28125 -17.085938 8.1875 -17.203125 C 7.101562 -17.316406 5.9375 -16.875 4.6875 -15.875 L -0.859375 -11.390625 L 4.1875 -5.140625 C 4.457031 -4.804688 4.5625 -4.421875 4.5 -3.984375 C 4.445312 -3.554688 4.253906 -3.207031 3.921875 -2.9375 Z M 2.15625 -17.609375 C 3.695312 -18.847656 4.671875 -20.132812 5.078125 -21.46875 C 5.484375 -22.8125 5.238281 -24.039062 4.34375 -25.15625 C 3.476562 -26.21875 2.425781 -26.722656 1.1875 -26.671875 C -0.0507812 -26.617188 -1.609375 -25.832031 -3.484375 -24.3125 L -8.21875 -20.5 L -2.703125 -13.6875 Z M 2.15625 -17.609375 "/></g></g></g><g fill="#ffb74d" fill-opacity="1"><g transform="translate(114.619461, 55.958091)"><g/></g></g><g fill="#ffb74d" fill-opacity="1"><g transform="translate(126.697058, 48.482396)"><g><path d="M 12.21875 -4.65625 C 10.707031 -4.03125 9.117188 -3.75 7.453125 -3.8125 C 5.796875 -3.875 4.25 -4.375 2.8125 -5.3125 C 1.382812 -6.25 0.28125 -7.664062 -0.5 -9.5625 L -5.671875 -22.171875 C -5.835938 -22.578125 -5.835938 -22.976562 -5.671875 -23.375 C -5.515625 -23.78125 -5.238281 -24.066406 -4.84375 -24.234375 C -4.4375 -24.398438 -4.03125 -24.394531 -3.625 -24.21875 C -3.21875 -24.050781 -2.929688 -23.765625 -2.765625 -23.359375 L 2.453125 -10.65625 C 2.972656 -9.375 3.710938 -8.410156 4.671875 -7.765625 C 5.628906 -7.117188 6.675781 -6.765625 7.8125 -6.703125 C 8.945312 -6.648438 10.054688 -6.847656 11.140625 -7.296875 C 12.222656 -7.734375 13.148438 -8.375 13.921875 -9.21875 C 14.703125 -10.0625 15.203125 -11.046875 15.421875 -12.171875 C 15.640625 -13.304688 15.488281 -14.515625 14.96875 -15.796875 L 9.75 -28.5 C 9.582031 -28.90625 9.578125 -29.304688 9.734375 -29.703125 C 9.898438 -30.109375 10.179688 -30.394531 10.578125 -30.5625 C 10.984375 -30.726562 11.390625 -30.726562 11.796875 -30.5625 C 12.203125 -30.394531 12.488281 -30.109375 12.65625 -29.703125 L 17.828125 -17.09375 C 18.609375 -15.195312 18.816406 -13.410156 18.453125 -11.734375 C 18.097656 -10.054688 17.347656 -8.613281 16.203125 -7.40625 C 15.066406 -6.195312 13.738281 -5.28125 12.21875 -4.65625 Z M 12.21875 -4.65625 "/></g></g></g><g fill="#ffb74d" fill-opacity="1"><g transform="translate(155.64669, 37.375417)"><g><path d="M 5.390625 -1.140625 C 4.816406 -1.015625 4.273438 -1.113281 3.765625 -1.4375 C 3.253906 -1.769531 2.9375 -2.226562 2.8125 -2.8125 L -1.4375 -22.859375 C -1.53125 -23.285156 -1.457031 -23.679688 -1.21875 -24.046875 C -0.988281 -24.410156 -0.660156 -24.640625 -0.234375 -24.734375 C 0.179688 -24.828125 0.570312 -24.753906 0.9375 -24.515625 C 1.3125 -24.273438 1.546875 -23.941406 1.640625 -23.515625 L 5.6875 -4.421875 L 16.71875 -6.765625 C 17.144531 -6.859375 17.546875 -6.78125 17.921875 -6.53125 C 18.296875 -6.289062 18.523438 -5.957031 18.609375 -5.53125 C 18.703125 -5.101562 18.625 -4.710938 18.375 -4.359375 C 18.132812 -4.003906 17.800781 -3.78125 17.375 -3.6875 Z M 5.390625 -1.140625 "/></g></g></g><g fill="#ffb74d" fill-opacity="1"><g transform="translate(179.927461, 32.403392)"><g><path d="M 3.28125 0.078125 C 2.820312 0.0859375 2.441406 -0.046875 2.140625 -0.328125 C 1.847656 -0.617188 1.691406 -0.984375 1.671875 -1.421875 C 1.671875 -1.609375 1.722656 -1.84375 1.828125 -2.125 L 10 -23.15625 C 10.175781 -23.5625 10.425781 -23.898438 10.75 -24.171875 C 11.070312 -24.453125 11.476562 -24.597656 11.96875 -24.609375 L 12.3125 -24.625 C 12.789062 -24.632812 13.203125 -24.507812 13.546875 -24.25 C 13.890625 -24 14.160156 -23.675781 14.359375 -23.28125 L 23.765625 -2.78125 C 23.890625 -2.507812 23.953125 -2.28125 23.953125 -2.09375 C 23.972656 -1.65625 23.84375 -1.28125 23.5625 -0.96875 C 23.28125 -0.664062 22.90625 -0.507812 22.4375 -0.5 C 22.113281 -0.488281 21.816406 -0.566406 21.546875 -0.734375 C 21.285156 -0.898438 21.078125 -1.128906 20.921875 -1.421875 L 18.53125 -6.734375 L 6.8125 -6.375 L 4.734375 -0.9375 C 4.597656 -0.632812 4.398438 -0.390625 4.140625 -0.203125 C 3.890625 -0.0234375 3.601562 0.0664062 3.28125 0.078125 Z M 7.953125 -9.28125 L 17.25 -9.5625 L 12.265625 -20.625 Z M 7.953125 -9.28125 "/></g></g></g><g fill="#ffb74d" fill-opacity="1"><g transform="translate(210.2294, 31.579469)"><g><path d="M 4.78125 1.09375 C 4.351562 1.007812 4.019531 0.789062 3.78125 0.4375 C 3.539062 0.09375 3.460938 -0.289062 3.546875 -0.71875 L 7.4375 -20.953125 C 7.550781 -21.566406 7.863281 -22.050781 8.375 -22.40625 C 8.894531 -22.757812 9.460938 -22.875 10.078125 -22.75 L 11.1875 -22.546875 C 11.632812 -22.453125 12.019531 -22.234375 12.34375 -21.890625 C 12.664062 -21.546875 12.878906 -21.15625 12.984375 -20.71875 L 16.984375 -0.078125 L 28.375 -17.765625 C 28.613281 -18.140625 28.945312 -18.425781 29.375 -18.625 C 29.800781 -18.820312 30.238281 -18.875 30.6875 -18.78125 L 31.8125 -18.578125 C 32.425781 -18.453125 32.90625 -18.128906 33.25 -17.609375 C 33.59375 -17.085938 33.707031 -16.519531 33.59375 -15.90625 L 29.703125 4.328125 C 29.617188 4.753906 29.398438 5.082031 29.046875 5.3125 C 28.691406 5.550781 28.300781 5.628906 27.875 5.546875 C 27.445312 5.460938 27.109375 5.242188 26.859375 4.890625 C 26.617188 4.546875 26.539062 4.160156 26.625 3.734375 L 30.328125 -15.515625 L 18.765625 2.296875 C 18.515625 2.703125 18.164062 2.992188 17.71875 3.171875 C 17.269531 3.359375 16.804688 3.40625 16.328125 3.3125 C 15.859375 3.226562 15.453125 3.015625 15.109375 2.671875 C 14.765625 2.335938 14.535156 1.9375 14.421875 1.46875 L 10.34375 -19.375 L 6.640625 -0.125 C 6.554688 0.300781 6.332031 0.628906 5.96875 0.859375 C 5.601562 1.097656 5.207031 1.175781 4.78125 1.09375 Z M 4.78125 1.09375 "/></g></g></g></svg>